<svg xmlns="http://www.w3.org/2000/svg" xmlns:xlink="http://www.w3.org/1999/xlink" width="200" zoomAndPan="magnify" viewBox="0 0 150 149.999998" height="200" preserveAspectRatio="xMidYMid meet" version="1.0"><defs><clipPath id="adfa0b0523"><path d="M 95 3.871094 L 142.5 3.871094 L 142.5 53 L 95 53 Z M 95 3.871094 " clip-rule="nonzero"/></clipPath><clipPath id="e26c444c2c"><path d="M 7.5 92 L 55 92 L 55 102 L 7.5 102 Z M 7.5 92 " clip-rule="nonzero"/></clipPath><clipPath id="e53b6935de"><path d="M 16 129 L 31 129 L 31 138.871094 L 16 138.871094 Z M 16 129 " clip-rule="nonzero"/></clipPath><clipPath id="db568dd038"><path d="M 7.5 92 L 55 92 L 55 102 L 7.5 102 Z M 7.5 92 " clip-rule="nonzero"/></clipPath><clipPath id="385978a79c"><path d="M 16 129 L 31 129 L 31 138.871094 L 16 138.871094 Z M 16 129 " clip-rule="nonzero"/></clipPath><clipPath id="ae6bfb7c6f"><path d="M 7.5 20 L 55 20 L 55 44 L 7.5 44 Z M 7.5 20 " clip-rule="nonzero"/></clipPath><clipPath id="bedd007913"><path d="M 7.5 29 L 55 29 L 55 44 L 7.5 44 Z M 7.5 29 " clip-rule="nonzero"/></clipPath><clipPath id="4c3d8f6c6f"><path d="M 95 96 L 142.5 96 L 142.5 116 L 95 116 Z M 95 96 " clip-rule="nonzero"/></clipPath><clipPath id="a3e82d5d71"><path d="M 105 120 L 131 120 L 131 138.871094 L 105 138.871094 Z M 105 120 " clip-rule="nonzero"/></clipPath></defs><path fill="#6dbbea" d="M 119.222656 83.007812 C 119.222656 108.722656 98.386719 129.5625 72.671875 129.5625 C 46.960938 129.5625 26.121094 108.722656 26.121094 83.007812 C 26.121094 57.296875 46.960938 36.457031 72.671875 36.457031 C 98.386719 36.457031 119.222656 57.296875 119.222656 83.007812 " fill-opacity="1" fill-rule="nonzero"/><path fill="#578fd3" d="M 91.292969 108.613281 C 65.582031 108.613281 44.742188 87.773438 44.742188 62.0625 C 44.742188 55.296875 46.214844 48.894531 48.804688 43.09375 C 35.230469 51.222656 26.121094 66.035156 26.121094 83.007812 C 26.121094 108.722656 46.960938 129.5625 72.671875 129.5625 C 91.621094 129.5625 107.894531 118.222656 115.160156 101.976562 C 108.175781 106.167969 100.03125 108.613281 91.292969 108.613281 " fill-opacity="1" fill-rule="nonzero"/><path fill="#b9de23" d="M 104.066406 48.714844 L 79.65625 85.335938 L 102.929688 92.320312 L 93.621094 99.300781 L 93.621094 110.941406 L 84.308594 120.25 L 85.464844 127.742188 C 104.941406 122.179688 119.222656 104.277344 119.222656 83.007812 C 119.222656 69.417969 113.359375 57.222656 104.066406 48.714844 " fill-opacity="1" fill-rule="nonzero"/><path fill="#b9de23" d="M 26.121094 83.007812 C 26.121094 105.3125 41.8125 123.933594 62.753906 128.480469 L 58.707031 110.941406 L 77.328125 99.300781 L 61.035156 87.664062 L 70.34375 76.027344 L 58.707031 64.386719 L 55.433594 39.792969 C 38.269531 46.648438 26.121094 63.398438 26.121094 83.007812 " fill-opacity="1" fill-rule="nonzero"/><path fill="#95d221" d="M 115.179688 102.003906 C 109.613281 114.429688 98.738281 123.949219 85.445312 127.742188 L 84.308594 120.25 L 93.621094 110.941406 L 93.621094 108.539062 C 101.46875 108.167969 108.824219 105.839844 115.179688 102.003906 " fill-opacity="1" fill-rule="nonzero"/><path fill="#95d221" d="M 58.707031 110.941406 L 62.753906 128.46875 C 41.804688 123.933594 26.121094 105.3125 26.121094 83.007812 C 26.121094 66.015625 35.222656 51.214844 48.789062 43.09375 C 46.1875 48.886719 44.742188 55.3125 44.742188 62.0625 C 44.742188 80.261719 55.171875 96 70.390625 103.65625 L 58.707031 110.941406 " fill-opacity="1" fill-rule="nonzero"/><g clip-path="url(#adfa0b0523)"><path fill="#f3e305" d="M 119.222656 3.871094 L 124.515625 12.054688 L 133.609375 8.542969 L 133.082031 18.273438 L 142.5 20.78125 L 136.355469 28.347656 L 142.5 35.910156 L 133.082031 38.410156 L 133.609375 48.140625 L 124.515625 44.640625 L 119.222656 52.824219 L 113.933594 44.640625 L 104.839844 48.140625 L 105.367188 38.410156 L 95.949219 35.910156 L 102.09375 28.347656 L 95.949219 20.78125 L 105.367188 18.273438 L 104.839844 8.542969 L 113.933594 12.054688 L 119.222656 3.871094 " fill-opacity="1" fill-rule="nonzero"/></g><path fill="#f7b60b" d="M 115.789062 38.929688 L 109.878906 41.210938 L 110.222656 34.894531 L 104.09375 33.257812 L 108.09375 28.347656 L 104.09375 23.429688 L 110.222656 21.800781 L 109.878906 15.472656 L 115.789062 17.753906 L 119.222656 12.4375 L 122.660156 17.753906 L 128.570312 15.472656 L 128.226562 21.800781 L 134.351562 23.429688 L 130.351562 28.347656 L 134.351562 33.257812 L 128.226562 34.894531 L 128.570312 41.210938 L 122.660156 38.929688 L 119.222656 44.25 L 115.789062 38.929688 " fill-opacity="1" fill-rule="nonzero"/><path fill="#f14c46" d="M 128.535156 29.472656 C 128.535156 34.621094 124.371094 38.785156 119.222656 38.785156 C 114.078125 38.785156 109.914062 34.621094 109.914062 29.472656 C 109.914062 24.328125 114.078125 20.164062 119.222656 20.164062 C 124.371094 20.164062 128.535156 24.328125 128.535156 29.472656 " fill-opacity="1" fill-rule="nonzero"/><path fill="#d2dbda" d="M 77.328125 31.800781 C 78.136719 31.800781 78.9375 31.882812 79.710938 32.019531 C 82.902344 26.335938 88.976562 22.492188 95.949219 22.492188 C 102.921875 22.492188 108.996094 26.335938 112.1875 32.019531 C 112.960938 31.882812 113.761719 31.800781 114.570312 31.800781 C 119.761719 31.800781 124.289062 34.648438 126.699219 38.859375 C 126.917969 38.839844 127.144531 38.785156 127.371094 38.785156 C 133.152344 38.785156 137.84375 43.476562 137.84375 49.257812 C 137.84375 55.042969 133.152344 59.734375 127.371094 59.734375 C 125.179688 59.734375 123.144531 59.050781 121.46875 57.90625 C 119.433594 59.058594 117.078125 59.734375 114.570312 59.734375 C 111.332031 59.734375 108.359375 58.625 105.996094 56.777344 C 103.09375 58.640625 99.648438 59.734375 95.949219 59.734375 C 92.246094 59.734375 88.800781 58.640625 85.902344 56.777344 C 83.539062 58.625 80.5625 59.734375 77.328125 59.734375 C 69.617188 59.734375 63.363281 53.476562 63.363281 45.765625 C 63.363281 38.058594 69.617188 31.800781 77.328125 31.800781 " fill-opacity="1" fill-rule="nonzero"/><path fill="#8f9697" d="M 134.351562 50.421875 C 132.164062 50.421875 130.125 49.742188 128.453125 48.59375 C 126.417969 49.75 124.0625 50.421875 121.550781 50.421875 C 118.316406 50.421875 115.34375 49.3125 112.976562 47.46875 C 110.078125 49.332031 106.632812 50.421875 102.929688 50.421875 C 99.230469 50.421875 95.785156 49.332031 92.882812 47.46875 C 90.519531 49.3125 87.546875 50.421875 84.308594 50.421875 C 76.601562 50.421875 70.34375 44.167969 70.34375 36.457031 C 70.34375 35.4375 70.464844 34.449219 70.671875 33.492188 C 66.316406 35.855469 63.363281 40.46875 63.363281 45.765625 C 63.363281 53.476562 69.617188 59.734375 77.328125 59.734375 C 80.5625 59.734375 83.539062 58.625 85.902344 56.777344 C 88.800781 58.640625 92.246094 59.734375 95.949219 59.734375 C 99.648438 59.734375 103.09375 58.640625 105.996094 56.777344 C 108.359375 58.625 111.332031 59.734375 114.570312 59.734375 C 117.078125 59.734375 119.433594 59.058594 121.46875 57.90625 C 123.144531 59.050781 125.179688 59.734375 127.371094 59.734375 C 132.972656 59.734375 137.5 55.324219 137.789062 49.796875 C 136.707031 50.175781 135.5625 50.421875 134.351562 50.421875 " fill-opacity="1" fill-rule="nonzero"/><path fill="#f3e305" d="M 98.277344 66.714844 L 102.929688 48.09375 L 81.984375 73.699219 L 93.621094 76.027344 L 88.964844 94.648438 L 109.914062 69.042969 L 98.277344 66.714844 " fill-opacity="1" fill-rule="nonzero"/><path fill="#f7b60b" d="M 100.601562 71.371094 L 91.292969 71.371094 L 102.929688 48.09375 L 81.984375 73.699219 L 93.621094 76.027344 L 88.964844 94.648438 L 100.601562 71.371094 " fill-opacity="1" fill-rule="nonzero"/><path fill="#d2dbda" d="M 44.742188 110.941406 L 16.808594 110.941406 C 14.238281 110.941406 12.15625 108.859375 12.15625 106.285156 C 12.15625 103.710938 14.238281 101.628906 16.808594 101.628906 L 44.742188 101.628906 C 47.316406 101.628906 49.398438 103.710938 49.398438 106.285156 C 49.398438 108.859375 47.316406 110.941406 44.742188 110.941406 " fill-opacity="1" fill-rule="nonzero"/><g clip-path="url(#e26c444c2c)"><path fill="#d2dbda" d="M 49.398438 101.628906 L 12.15625 101.628906 C 9.582031 101.628906 7.5 99.546875 7.5 96.972656 C 7.5 94.402344 9.582031 92.320312 12.15625 92.320312 L 49.398438 92.320312 C 51.96875 92.320312 54.050781 94.402344 54.050781 96.972656 C 54.050781 99.546875 51.96875 101.628906 49.398438 101.628906 " fill-opacity="1" fill-rule="nonzero"/></g><path fill="#d2dbda" d="M 40.085938 120.25 L 21.464844 120.25 C 18.890625 120.25 16.808594 118.167969 16.808594 115.59375 C 16.808594 113.023438 18.890625 110.941406 21.464844 110.941406 L 40.085938 110.941406 C 42.660156 110.941406 44.742188 113.023438 44.742188 115.59375 C 44.742188 118.167969 42.660156 120.25 40.085938 120.25 " fill-opacity="1" fill-rule="nonzero"/><path fill="#d2dbda" d="M 33.101562 129.5625 L 23.792969 129.5625 C 21.21875 129.5625 19.136719 127.480469 19.136719 124.90625 C 19.136719 122.332031 21.21875 120.25 23.792969 120.25 L 33.101562 120.25 C 35.675781 120.25 37.757812 122.332031 37.757812 124.90625 C 37.757812 127.480469 35.675781 129.5625 33.101562 129.5625 " fill-opacity="1" fill-rule="nonzero"/><g clip-path="url(#e53b6935de)"><path fill="#d2dbda" d="M 26.121094 138.871094 L 21.464844 138.871094 C 18.890625 138.871094 16.808594 136.789062 16.808594 134.214844 C 16.808594 131.644531 18.890625 129.5625 21.464844 129.5625 L 26.121094 129.5625 C 28.695312 129.5625 30.777344 131.644531 30.777344 134.214844 C 30.777344 136.789062 28.695312 138.871094 26.121094 138.871094 " fill-opacity="1" fill-rule="nonzero"/></g><path fill="#8f9697" d="M 16.808594 101.628906 C 14.238281 101.628906 12.15625 103.710938 12.15625 106.285156 C 12.15625 108.859375 14.238281 110.941406 16.808594 110.941406 L 44.742188 110.941406 C 47.316406 110.941406 49.398438 108.859375 49.398438 106.285156 L 21.464844 106.285156 C 18.890625 106.285156 16.808594 104.203125 16.808594 101.628906 " fill-opacity="1" fill-rule="nonzero"/><g clip-path="url(#db568dd038)"><path fill="#8f9697" d="M 12.15625 92.320312 C 9.582031 92.320312 7.5 94.402344 7.5 96.972656 C 7.5 99.546875 9.582031 101.628906 12.15625 101.628906 L 49.398438 101.628906 C 51.96875 101.628906 54.050781 99.546875 54.050781 96.972656 L 16.808594 96.972656 C 14.238281 96.972656 12.15625 94.890625 12.15625 92.320312 " fill-opacity="1" fill-rule="nonzero"/></g><path fill="#8f9697" d="M 21.464844 110.941406 C 18.890625 110.941406 16.808594 113.023438 16.808594 115.59375 C 16.808594 118.167969 18.890625 120.25 21.464844 120.25 L 40.085938 120.25 C 42.660156 120.25 44.742188 118.167969 44.742188 115.59375 L 26.121094 115.59375 C 23.546875 115.59375 21.464844 113.511719 21.464844 110.941406 " fill-opacity="1" fill-rule="nonzero"/><path fill="#8f9697" d="M 23.792969 120.25 C 21.21875 120.25 19.136719 122.332031 19.136719 124.90625 C 19.136719 127.480469 21.21875 129.5625 23.792969 129.5625 L 33.101562 129.5625 C 35.675781 129.5625 37.757812 127.480469 37.757812 124.90625 L 28.449219 124.90625 C 25.875 124.90625 23.792969 122.824219 23.792969 120.25 " fill-opacity="1" fill-rule="nonzero"/><g clip-path="url(#385978a79c)"><path fill="#8f9697" d="M 21.464844 129.5625 C 18.890625 129.5625 16.808594 131.644531 16.808594 134.214844 C 16.808594 136.789062 18.890625 138.871094 21.464844 138.871094 L 26.121094 138.871094 C 28.695312 138.871094 30.777344 136.789062 30.777344 134.214844 L 26.121094 134.214844 C 23.546875 134.214844 21.464844 132.132812 21.464844 129.5625 " fill-opacity="1" fill-rule="nonzero"/></g><g clip-path="url(#ae6bfb7c6f)"><path fill="#d2dbda" d="M 47.070312 29.472656 C 46.652344 29.472656 46.242188 29.527344 45.839844 29.601562 C 44.25 26.757812 41.25 24.820312 37.757812 24.820312 C 37.011719 24.820312 36.292969 24.929688 35.605469 25.09375 C 33.496094 22.117188 30.039062 20.164062 26.121094 20.164062 C 20.484375 20.164062 15.78125 24.171875 14.71875 29.5 C 14.636719 29.492188 14.566406 29.472656 14.484375 29.472656 C 10.628906 29.472656 7.5 32.601562 7.5 36.457031 C 7.5 40.3125 10.628906 43.441406 14.484375 43.441406 C 16.4375 43.441406 18.203125 42.628906 19.472656 41.332031 C 21.355469 42.648438 23.648438 43.441406 26.121094 43.441406 C 28.394531 43.441406 30.503906 42.757812 32.292969 41.628906 C 33.832031 42.757812 35.703125 43.441406 37.757812 43.441406 C 39.613281 43.441406 41.339844 42.886719 42.796875 41.941406 C 43.976562 42.867188 45.449219 43.441406 47.070312 43.441406 C 50.925781 43.441406 54.050781 40.3125 54.050781 36.457031 C 54.050781 32.601562 50.925781 29.472656 47.070312 29.472656 " fill-opacity="1" fill-rule="nonzero"/></g><g clip-path="url(#bedd007913)"><path fill="#8f9697" d="M 51.722656 36.457031 C 50.105469 36.457031 48.632812 35.882812 47.449219 34.957031 C 45.996094 35.902344 44.269531 36.457031 42.414062 36.457031 C 40.359375 36.457031 38.484375 35.773438 36.949219 34.648438 C 35.160156 35.773438 33.050781 36.457031 30.777344 36.457031 C 28.292969 36.457031 26.011719 35.667969 24.128906 34.347656 C 22.855469 35.648438 21.09375 36.457031 19.136719 36.457031 C 15.429688 36.457031 12.417969 33.546875 12.199219 29.894531 C 9.472656 30.839844 7.5 33.402344 7.5 36.457031 C 7.5 40.3125 10.628906 43.441406 14.484375 43.441406 C 16.4375 43.441406 18.203125 42.628906 19.472656 41.332031 C 21.355469 42.648438 23.648438 43.441406 26.121094 43.441406 C 28.394531 43.441406 30.503906 42.757812 32.292969 41.628906 C 33.832031 42.757812 35.703125 43.441406 37.757812 43.441406 C 39.613281 43.441406 41.339844 42.886719 42.796875 41.941406 C 43.976562 42.867188 45.449219 43.441406 47.070312 43.441406 C 50.925781 43.441406 54.050781 40.3125 54.050781 36.457031 C 54.050781 36.3125 54.015625 36.183594 54.007812 36.039062 C 53.289062 36.292969 52.523438 36.457031 51.722656 36.457031 " fill-opacity="1" fill-rule="nonzero"/></g><g clip-path="url(#4c3d8f6c6f)"><path fill="#90d9f6" d="M 133.191406 115.59375 L 98.277344 115.59375 C 96.992188 115.59375 95.949219 114.550781 95.949219 113.265625 C 95.949219 111.984375 96.992188 110.941406 98.277344 110.941406 L 133.191406 110.941406 C 135.753906 110.941406 137.84375 108.847656 137.84375 106.285156 C 137.84375 103.722656 135.753906 101.628906 133.191406 101.628906 C 131.90625 101.628906 130.863281 100.585938 130.863281 99.300781 C 130.863281 98.019531 131.90625 96.972656 133.191406 96.972656 C 138.328125 96.972656 142.5 101.148438 142.5 106.285156 C 142.5 111.421875 138.328125 115.59375 133.191406 115.59375 " fill-opacity="1" fill-rule="nonzero"/></g><path fill="#90d9f6" d="M 107.585938 134.214844 L 91.292969 134.214844 C 90.011719 134.214844 88.964844 133.171875 88.964844 131.886719 C 88.964844 130.605469 90.011719 129.5625 91.292969 129.5625 L 107.585938 129.5625 C 108.867188 129.5625 109.914062 130.605469 109.914062 131.886719 C 109.914062 133.171875 108.867188 134.214844 107.585938 134.214844 " fill-opacity="1" fill-rule="nonzero"/><path fill="#90d9f6" d="M 116.898438 106.285156 L 100.601562 106.285156 C 99.320312 106.285156 98.277344 105.238281 98.277344 103.957031 C 98.277344 102.675781 99.320312 101.628906 100.601562 101.628906 L 116.898438 101.628906 C 118.179688 101.628906 119.222656 102.675781 119.222656 103.957031 C 119.222656 105.238281 118.179688 106.285156 116.898438 106.285156 " fill-opacity="1" fill-rule="nonzero"/><g clip-path="url(#a3e82d5d71)"><path fill="#90d9f6" d="M 121.550781 138.871094 C 120.269531 138.871094 119.222656 137.824219 119.222656 136.542969 C 119.222656 135.261719 120.269531 134.214844 121.550781 134.214844 C 124.117188 134.214844 126.207031 132.125 126.207031 129.5625 C 126.207031 126.996094 124.117188 124.90625 121.550781 124.90625 L 107.585938 124.90625 C 106.304688 124.90625 105.257812 123.859375 105.257812 122.578125 C 105.257812 121.296875 106.304688 120.25 107.585938 120.25 L 121.550781 120.25 C 126.6875 120.25 130.863281 124.421875 130.863281 129.5625 C 130.863281 134.699219 126.6875 138.871094 121.550781 138.871094 " fill-opacity="1" fill-rule="nonzero"/></g><path fill="#90d9f6" d="M 75 115.59375 L 70.34375 115.59375 C 69.0625 115.59375 68.015625 114.550781 68.015625 113.265625 C 68.015625 111.984375 69.0625 110.941406 70.34375 110.941406 L 75 110.941406 C 76.28125 110.941406 77.328125 111.984375 77.328125 113.265625 C 77.328125 114.550781 76.28125 115.59375 75 115.59375 " fill-opacity="1" fill-rule="nonzero"/><path fill="#90d9f6" d="M 84.308594 106.285156 L 79.65625 106.285156 C 78.375 106.285156 77.328125 105.238281 77.328125 103.957031 C 77.328125 102.675781 78.375 101.628906 79.65625 101.628906 L 84.308594 101.628906 C 85.59375 101.628906 86.636719 102.675781 86.636719 103.957031 C 86.636719 105.238281 85.59375 106.285156 84.308594 106.285156 " fill-opacity="1" fill-rule="nonzero"/><path fill="#90d9f6" d="M 19.136719 57.40625 C 18.285156 57.40625 17.464844 56.933594 17.054688 56.125 L 14.726562 51.46875 C 14.15625 50.3125 14.621094 48.914062 15.765625 48.339844 C 16.917969 47.757812 18.320312 48.230469 18.890625 49.378906 L 21.21875 54.03125 C 21.792969 55.1875 21.328125 56.585938 20.183594 57.160156 C 19.847656 57.324219 19.492188 57.40625 19.136719 57.40625 " fill-opacity="1" fill-rule="nonzero"/><path fill="#90d9f6" d="M 28.449219 57.40625 C 27.59375 57.40625 26.773438 56.933594 26.367188 56.125 L 24.039062 51.46875 C 23.464844 50.3125 23.929688 48.914062 25.074219 48.339844 C 26.230469 47.757812 27.628906 48.230469 28.203125 49.378906 L 30.53125 54.03125 C 31.101562 55.1875 30.640625 56.585938 29.492188 57.160156 C 29.15625 57.324219 28.804688 57.40625 28.449219 57.40625 " fill-opacity="1" fill-rule="nonzero"/><path fill="#90d9f6" d="M 37.757812 57.40625 C 36.902344 57.40625 36.085938 56.933594 35.675781 56.125 L 33.347656 51.46875 C 32.777344 50.3125 33.238281 48.914062 34.386719 48.339844 C 35.539062 47.757812 36.941406 48.230469 37.511719 49.378906 L 39.839844 54.03125 C 40.414062 55.1875 39.949219 56.585938 38.804688 57.160156 C 38.46875 57.324219 38.113281 57.40625 37.757812 57.40625 " fill-opacity="1" fill-rule="nonzero"/><path fill="#90d9f6" d="M 47.070312 57.40625 C 46.214844 57.40625 45.394531 56.933594 44.988281 56.125 L 42.660156 51.46875 C 42.085938 50.3125 42.550781 48.914062 43.695312 48.339844 C 44.851562 47.757812 46.25 48.230469 46.824219 49.378906 L 49.152344 54.03125 C 49.722656 55.1875 49.261719 56.585938 48.113281 57.160156 C 47.777344 57.324219 47.421875 57.40625 47.070312 57.40625 " fill-opacity="1" fill-rule="nonzero"/><path fill="#90d9f6" d="M 23.792969 69.042969 C 22.9375 69.042969 22.121094 68.570312 21.710938 67.761719 L 19.382812 63.105469 C 18.8125 61.953125 19.273438 60.550781 20.421875 59.980469 C 21.574219 59.40625 22.976562 59.871094 23.546875 61.015625 L 25.875 65.671875 C 26.449219 66.824219 25.984375 68.226562 24.839844 68.796875 C 24.503906 68.960938 24.148438 69.042969 23.792969 69.042969 " fill-opacity="1" fill-rule="nonzero"/><path fill="#90d9f6" d="M 33.101562 69.042969 C 32.25 69.042969 31.429688 68.570312 31.019531 67.761719 L 28.695312 63.105469 C 28.121094 61.953125 28.585938 60.550781 29.730469 59.980469 C 30.886719 59.40625 32.285156 59.871094 32.859375 61.015625 L 35.1875 65.671875 C 35.757812 66.824219 35.292969 68.226562 34.148438 68.796875 C 33.8125 68.960938 33.457031 69.042969 33.101562 69.042969 " fill-opacity="1" fill-rule="nonzero"/><path fill="#90d9f6" d="M 42.414062 69.042969 C 41.558594 69.042969 40.742188 68.570312 40.332031 67.761719 L 38.003906 63.105469 C 37.429688 61.953125 37.894531 60.550781 39.039062 59.980469 C 40.195312 59.40625 41.59375 59.871094 42.167969 61.015625 L 44.496094 65.671875 C 45.070312 66.824219 44.605469 68.226562 43.460938 68.796875 C 43.121094 68.960938 42.769531 69.042969 42.414062 69.042969 " fill-opacity="1" fill-rule="nonzero"/><path fill="#90d9f6" d="M 51.722656 69.042969 C 50.871094 69.042969 50.050781 68.570312 49.640625 67.761719 L 47.316406 63.105469 C 46.742188 61.953125 47.207031 60.550781 48.351562 59.980469 C 49.503906 59.40625 50.90625 59.871094 51.480469 61.015625 L 53.804688 65.671875 C 54.378906 66.824219 53.914062 68.226562 52.769531 68.796875 C 52.433594 68.960938 52.078125 69.042969 51.722656 69.042969 " fill-opacity="1" fill-rule="nonzero"/><path fill="#90d9f6" d="M 28.449219 83.007812 C 27.59375 83.007812 26.773438 82.535156 26.367188 81.726562 L 24.039062 77.070312 C 23.464844 75.917969 23.929688 74.515625 25.074219 73.945312 C 26.230469 73.371094 27.628906 73.835938 28.203125 74.980469 L 30.53125 79.636719 C 31.101562 80.789062 30.640625 82.191406 29.492188 82.761719 C 29.15625 82.925781 28.804688 83.007812 28.449219 83.007812 " fill-opacity="1" fill-rule="nonzero"/><path fill="#90d9f6" d="M 37.757812 83.007812 C 36.902344 83.007812 36.085938 82.535156 35.675781 81.726562 L 33.347656 77.070312 C 32.777344 75.917969 33.238281 74.515625 34.386719 73.945312 C 35.539062 73.371094 36.941406 73.835938 37.511719 74.980469 L 39.839844 79.636719 C 40.414062 80.789062 39.949219 82.191406 38.804688 82.761719 C 38.46875 82.925781 38.113281 83.007812 37.757812 83.007812 " fill-opacity="1" fill-rule="nonzero"/><path fill="#90d9f6" d="M 47.070312 83.007812 C 46.214844 83.007812 45.394531 82.535156 44.988281 81.726562 L 42.660156 77.070312 C 42.085938 75.917969 42.550781 74.515625 43.695312 73.945312 C 44.851562 73.371094 46.25 73.835938 46.824219 74.980469 L 49.152344 79.636719 C 49.722656 80.789062 49.261719 82.191406 48.113281 82.761719 C 47.777344 82.925781 47.421875 83.007812 47.070312 83.007812 " fill-opacity="1" fill-rule="nonzero"/><path fill="#90d9f6" d="M 54.050781 80.679688 C 53.195312 80.679688 52.378906 80.207031 51.96875 79.398438 L 49.640625 74.746094 C 49.070312 73.589844 49.53125 72.1875 50.679688 71.617188 C 51.832031 71.035156 53.234375 71.507812 53.804688 72.652344 L 56.132812 77.308594 C 56.707031 78.460938 56.242188 79.863281 55.097656 80.4375 C 54.761719 80.597656 54.40625 80.679688 54.050781 80.679688 " fill-opacity="1" fill-rule="nonzero"/></svg>